<?xml version="1.0" encoding="utf-8"?>
<!-- Generator: Adobe Illustrator 17.0.0, SVG Export Plug-In . SVG Version: 6.00 Build 0)  -->
<!DOCTYPE svg PUBLIC "-//W3C//DTD SVG 1.1//EN" "http://www.w3.org/Graphics/SVG/1.1/DTD/svg11.dtd">
<svg version="1.1" id="Layer_1" xmlns="http://www.w3.org/2000/svg" xmlns:xlink="http://www.w3.org/1999/xlink" x="0px" y="0px"
	 width="1289px" height="833.263px" viewBox="-182.32 -117.86 1289 833.263" enable-background="new -182.32 -117.86 1289 833.263"
	 xml:space="preserve">
<path d="M-182.32-117.86v833.263h1289V-117.86H-182.32z M202.09,116.643v272.569c-0.842,73.6-29.532,128.489-86.077,164.667
	c-25.371,16.22-56.757,30.771-94.187,43.665L0,561.989c34.09-21.21,57.476-44.705,70.165-70.486
	c12.682-25.775,19.232-58.208,19.649-97.301V109.155L36.8,100.422l0.623-33.057H251.36l3.744,19.958
	C240.136,98.143,222.458,107.91,202.09,116.643z M566.349,490.88c-12.066-0.835-24.228-6.03-36.492-15.591
	c-12.271-9.561-22.14-22.038-29.628-37.423c-33.269,25.364-66.736,43.035-100.422,53.014c-21.203,0-41.269-6.652-60.186-19.957
	c-18.931-13.305-29.628-29.943-32.126-49.9l-1.868-35.555V231.41l-46.156-8.733l-3.121-29.943
	c37.006-14.126,78.172-21.826,123.5-23.078l33.679,29.943v164.667c0,34.521,13.099,51.768,39.298,51.768
	c12.88,0,25.357-2.697,37.423-8.11v-178.39l-34.932-8.733l-3.114-29.936c33.262-13.305,70.685-20.368,112.269-21.21l33.686,29.943
	v203.335c0,10.82,5.195,16.22,15.591,16.22l16.214-0.623l15.597-1.252l3.744,27.446L566.349,490.88z M885.69,465.618
	c-23.29,18.089-54.266,27.137-92.935,27.137c-43.665,0-87.117-11.231-130.365-33.686l35.555-81.704
	c36.177,27.862,73.6,48.647,112.276,62.369c7.481-6.646,11.224-14.345,11.224-23.078c0-7.891-3.018-14.968-9.041-21.203
	c-6.036-6.242-25.165-17.569-57.387-33.994c-32.228-16.426-54.061-31.811-65.49-46.156c-11.443-14.352-17.158-30.661-17.158-48.969
	c0-29.101,12.791-52.706,38.361-70.794c25.576-18.089,58.728-27.13,99.491-27.13c37.834,0,70.062,6.858,96.678,20.58l1.246,21.832
	c0,21.627-3.538,43.459-10.601,65.497h-54.889l-19.341-56.764l-28.69-3.121c-16.638,4.997-24.947,13.723-24.947,26.2
	c0,7.487,2.697,14.249,8.103,20.272c5.4,6.036,24.741,17.678,58.01,34.932c33.262,17.261,55.717,33.269,67.366,48.024
	c11.635,14.769,17.466,31.503,17.466,50.214C920.622,424.355,908.974,447.529,885.69,465.618z M841.402,144.71l-77.967,1.246
	L672.369,49.9l54.889-49.277l76.721,87.952L878.203,0l46.156,39.298L841.402,144.71z"/>
</svg>
