<?xml version="1.0" encoding="utf-8"?>
<!-- Generator: Adobe Illustrator 17.0.0, SVG Export Plug-In . SVG Version: 6.00 Build 0)  -->
<!DOCTYPE svg PUBLIC "-//W3C//DTD SVG 1.1//EN" "http://www.w3.org/Graphics/SVG/1.1/DTD/svg11.dtd">
<svg version="1.1"
	 id="svg3157" inkscape:version="0.48.4 r9939" sodipodi:docname="Blank_map_of_Europe_(with_disputed_regions)[1].svg" xmlns:dc="http://purl.org/dc/elements/1.1/" xmlns:inkscape="http://www.inkscape.org/namespaces/inkscape" xmlns:rdf="http://www.w3.org/1999/02/22-rdf-syntax-ns#" xmlns:sodipodi="http://sodipodi.sourceforge.net/DTD/sodipodi-0.dtd" xmlns:svg="http://www.w3.org/2000/svg" xmlns:cc="http://creativecommons.org/ns#"
	 xmlns="http://www.w3.org/2000/svg" xmlns:xlink="http://www.w3.org/1999/xlink" x="0px" y="0px" width="294.162px"
	 height="239.69px" viewBox="73.497 268.393 294.162 239.69" enable-background="new 73.497 268.393 294.162 239.69"
	 xml:space="preserve">
<path fill="none" d="M165.813,409.125c-0.28-0.583,0.586-2.179,0.625-2.938c0.055-1.064-0.182-1.886-0.817-2.731
	c0.035,1.419-0.266,2.706-0.871,3.997c-0.739,1.576-0.941,3.169-0.875,4.906c0.021,0.552,0.089,1.042,0.313,1.516
	c0.315,0.668,0.609,0.608,1.25,0.359c1.123-0.436,2.134-1.153,3.375-0.719c1.005,0.352,1.84,1.102,2.86,1.5
	c2.16,0.842,4.845,0.826,7.062,0.25c2.028-0.527,3.823-1.651,5.905-2.062c1.71-0.338,3.57-0.233,5.298-0.077
	c1.65,0.149,3.302,0.58,4.984,0.436c0.804-0.069,1.572-0.361,2.328-0.642c1.238-0.46,2.269-1.062,3.604-1.234
	c1.42-0.183,2.852,0.083,4.271-0.058c2.867-0.286,4.673-1.452,6.716-3.476c5.38-5.331,8.536-11.79,9.878-19.183
	c0.901-4.958,3.042-10.071,6.774-13.564c3.866-3.617,8.307-6.505,10.409-11.562c1.058-2.545,1.311-5.092,2.441-7.594
	c0.833-1.843,1.844-3.676,2.511-5.515c0.56-1.545,1.574-2.172,3.04-2.88c2.585-1.249,5.578-1.678,8.099-3.008
	c2.322-1.224,4.088-2.785,5.638-4.848c1.533-2.04,2.218-4.043,4.369-5.593c1.129-0.815,2.903-1.936,4.25-2.156
	c1.389-0.227,2.602,0.619,4.094-0.156c2.641-1.374,1.807-4.923,4.031-6.094"/>
</svg>
