<?xml version="1.0" encoding="utf-8"?>
<!-- Generator: Adobe Illustrator 17.0.0, SVG Export Plug-In . SVG Version: 6.00 Build 0)  -->
<!DOCTYPE svg PUBLIC "-//W3C//DTD SVG 1.1//EN" "http://www.w3.org/Graphics/SVG/1.1/DTD/svg11.dtd">
<svg version="1.1" id="Layer_1" xmlns="http://www.w3.org/2000/svg" xmlns:xlink="http://www.w3.org/1999/xlink" x="0px" y="0px"
	 width="163.601px" height="594.593px" viewBox="0 0 163.601 594.593" enable-background="new 0 0 163.601 594.593"
	 xml:space="preserve">
<g>
	<line fill="none" stroke="#FFCC07" stroke-miterlimit="10" x1="10.96" y1="-243.488" x2="10.96" y2="1073.512"/>
	<g>
		
			<rect x="3.46" y="15.012" transform="matrix(-0.7071 -0.7071 0.7071 -0.7071 3.1455 45.3265)" fill="#1B1B1B" width="15" height="14"/>
		
			<rect x="3.96" y="14.512" transform="matrix(-0.7071 -0.7071 0.7071 -0.7071 3.1454 45.3264)" fill="none" stroke="#FFCC07" stroke-miterlimit="10" width="14" height="15"/>
	</g>
	<g>
		
			<rect x="3.46" y="80.012" transform="matrix(-0.7071 -0.7071 0.7071 -0.7071 -42.8165 156.2885)" fill="#1B1B1B" width="15" height="14"/>
		
			<rect x="3.96" y="79.512" transform="matrix(-0.7071 -0.7071 0.7071 -0.7071 -42.8166 156.2883)" fill="none" stroke="#FFCC07" stroke-miterlimit="10" width="14" height="15"/>
	</g>
	<g>
		<text transform="matrix(1 0 0 1 26.9602 -41.0717)"><tspan x="0" y="0" fill="#FFCC07" font-family="'Merriweather-Regular'" font-size="15">Revolución </tspan><tspan x="0" y="19" fill="#FFCC07" font-family="'Merriweather-Regular'" font-size="15">de Octubre </tspan><tspan x="0" y="38" fill="#FFCC07" font-family="'Merriweather-Regular'" font-size="15">en Asturias</tspan></text>
	</g>
	<g>
		<text transform="matrix(1 0 0 1 26.9602 27.4283)" fill="#FFFFFF" font-family="'Merriweather-Regular'" font-size="17">1936</text>
	</g>
	<g>
		<text transform="matrix(1 0 0 1 26.9602 48.9283)"><tspan x="0" y="0" fill="#FFCC07" font-family="'Merriweather-Regular'" font-size="15">Inicio de </tspan><tspan x="0" y="19" fill="#FFCC07" font-family="'Merriweather-Regular'" font-size="15">la Guerra Civil</tspan></text>
	</g>
	<g>
		<text transform="matrix(1 0 0 1 26.9602 92.4283)" fill="#FFFFFF" font-family="'Merriweather-Regular'" font-size="17">1937</text>
	</g>
	<g>
		<text transform="matrix(1 0 0 1 26.9602 113.9284)"><tspan x="0" y="0" fill="#FFCC07" font-family="'Merriweather-Regular'" font-size="15">Caída del </tspan><tspan x="0" y="19" fill="#FFCC07" font-family="'Merriweather-Regular'" font-size="15">Frente Norte</tspan><tspan x="0" y="55" fill="#676767" font-family="'Merriweather-Regular'" font-size="15">Asesinato </tspan><tspan x="0" y="74" fill="#676767" font-family="'Merriweather-Regular'" font-size="15">de José </tspan><tspan x="0" y="93" fill="#676767" font-family="'Merriweather-Regular'" font-size="15">“El Chalana”</tspan></text>
	</g>
	<circle fill="#1B1B1B" stroke="#FFCC07" stroke-miterlimit="10" cx="10.96" cy="239.012" r="7.333"/>
	<g>
		<text transform="matrix(1 0 0 1 26.9602 244.4284)" fill="#FFFFFF" font-family="'Merriweather-Regular'" font-size="17">1951</text>
	</g>
	<g>
		<text transform="matrix(1 0 0 1 26.9602 265.9284)"><tspan x="0" y="0" fill="#676767" font-family="'Merriweather-Regular'" font-size="15">Boda de </tspan><tspan x="0" y="19" fill="#676767" font-family="'Merriweather-Regular'" font-size="15">Ezequiel y Pepita</tspan></text>
	</g>
	<circle fill="#1B1B1B" stroke="#FFCC07" stroke-miterlimit="10" cx="10.96" cy="310.012" r="7.333"/>
	<g>
		<text transform="matrix(1 0 0 1 26.9602 315.4284)" fill="#FFFFFF" font-family="'Merriweather-Regular'" font-size="17">1953</text>
	</g>
	<g>
		<text transform="matrix(1 0 0 1 26.9602 336.9284)"><tspan x="0" y="0" fill="#676767" font-family="'Merriweather-Regular'" font-size="15">Nacimiento </tspan><tspan x="0" y="19" fill="#676767" font-family="'Merriweather-Regular'" font-size="15">de José Luis</tspan></text>
	</g>
	<circle fill="#1B1B1B" stroke="#FFCC07" stroke-miterlimit="10" cx="10.96" cy="387.012" r="7.333"/>
	<g>
		<text transform="matrix(1 0 0 1 26.9602 392.4284)" fill="#FFFFFF" font-family="'Merriweather-Regular'" font-size="17">1957</text>
	</g>
	<g>
		<text transform="matrix(1 0 0 1 26.9602 413.9284)"><tspan x="0" y="0" fill="#676767" font-family="'Merriweather-Regular'" font-size="15">Nacimiento </tspan><tspan x="0" y="19" fill="#676767" font-family="'Merriweather-Regular'" font-size="15">de Ezequiel</tspan></text>
	</g>
	<circle fill="#1B1B1B" stroke="#FFCC07" stroke-miterlimit="10" cx="10.96" cy="465.012" r="7.333"/>
	<g>
		<text transform="matrix(1 0 0 1 26.9602 470.4284)" fill="#FFFFFF" font-family="'Merriweather-Regular'" font-size="17">1960</text>
	</g>
	<g>
		<text transform="matrix(1 0 0 1 26.9602 491.9284)"><tspan x="0" y="0" fill="#676767" font-family="'Merriweather-Regular'" font-size="15">Emigración </tspan><tspan x="0" y="19" fill="#676767" font-family="'Merriweather-Regular'" font-size="15">de Ricardo</tspan></text>
	</g>
	<circle fill="#1B1B1B" stroke="#FFCC07" stroke-miterlimit="10" cx="10.96" cy="537.012" r="7.333"/>
	<g>
		<text transform="matrix(1 0 0 1 26.9602 542.4283)" fill="#FFFFFF" font-family="'Merriweather-Regular'" font-size="17">1961</text>
	</g>
	<g>
		<text transform="matrix(1 0 0 1 26.9602 563.9283)"><tspan x="0" y="0" fill="#676767" font-family="'Merriweather-Regular'" font-size="15">Emigración de </tspan><tspan x="0" y="19" fill="#676767" font-family="'Merriweather-Regular'" font-size="15">Ezequiel y Pepita</tspan></text>
	</g>
	<line fill="none" stroke="#343434" stroke-miterlimit="10" x1="26.46" y1="147.012" x2="75.46" y2="147.012"/>
</g>
</svg>
