<?xml version="1.0" encoding="utf-8"?>
<!-- Generator: Adobe Illustrator 17.0.0, SVG Export Plug-In . SVG Version: 6.00 Build 0)  -->
<!DOCTYPE svg PUBLIC "-//W3C//DTD SVG 1.1//EN" "http://www.w3.org/Graphics/SVG/1.1/DTD/svg11.dtd">
<svg version="1.1" id="Layer_1" xmlns="http://www.w3.org/2000/svg" xmlns:xlink="http://www.w3.org/1999/xlink" x="0px" y="0px"
	 width="327.202px" height="1198px" viewBox="0 8 327.202 1198" enable-background="new 0 8 327.202 1198" xml:space="preserve">
<rect x="0" y="8" width="327.202" height="1206"/>
<g>
	<line fill="none" stroke="#FFCC07" stroke-miterlimit="10" x1="21.92" y1="-8" x2="21.92" y2="2626"/>
	<circle fill="#1B1B1B" stroke="#FFCC07" stroke-miterlimit="10" cx="21.92" cy="61" r="14.666"/>
	<g>
		<text transform="matrix(1 0 0 1 53.9201 71.833)" fill="#FFFFFF" font-family="'Merriweather-Regular'" font-size="34">1932</text>
	</g>
	<g>
		<text transform="matrix(1 0 0 1 53.9201 114.833)" fill="#676767" font-family="'Merriweather-Regular'" font-size="30">Nacimiento </text>
		<text transform="matrix(1 0 0 1 53.9201 152.833)" fill="#676767" font-family="'Merriweather-Regular'" font-size="30">de Pepita</text>
	</g>
	<circle fill="#1B1B1B" stroke="#FFCC07" stroke-miterlimit="10" cx="21.92" cy="199" r="14.666"/>
	<g>
		<text transform="matrix(1 0 0 1 53.9201 209.833)" fill="#FFFFFF" font-family="'Merriweather-Regular'" font-size="34">1932</text>
	</g>
	<g>
		<text transform="matrix(1 0 0 1 53.9201 252.833)" fill="#676767" font-family="'Merriweather-Regular'" font-size="30">Nacimiento </text>
		<text transform="matrix(1 0 0 1 53.9201 290.833)" fill="#676767" font-family="'Merriweather-Regular'" font-size="30">de Ezequiel</text>
	</g>
	<g>
		
			<rect x="6.919" y="329.002" transform="matrix(0.7071 0.7071 -0.7071 0.7071 248.9585 84.964)" fill="#1B1B1B" width="30" height="28"/>
		
			<rect x="7.918" y="328.002" transform="matrix(0.7071 0.7071 -0.7071 0.7071 248.9585 84.9644)" fill="none" stroke="#FFCC07" stroke-miterlimit="10" width="28" height="30"/>
	</g>
	<g>
		
			<rect x="6.918" y="509.005" transform="matrix(0.7071 0.7071 -0.7071 0.7071 376.2396 137.6865)" fill="#1B1B1B" width="30" height="28"/>
		
			<rect x="7.917" y="508.005" transform="matrix(0.7071 0.7071 -0.7071 0.7071 376.2396 137.6869)" fill="none" stroke="#FFCC07" stroke-miterlimit="10" width="28" height="30"/>
	</g>
	<g>
		
			<rect x="6.917" y="639.004" transform="matrix(0.7071 0.7071 -0.7071 0.7071 468.1625 175.7631)" fill="#1B1B1B" width="30" height="28"/>
		
			<rect x="7.916" y="638.004" transform="matrix(0.7071 0.7071 -0.7071 0.7071 468.1624 175.7634)" fill="none" stroke="#FFCC07" stroke-miterlimit="10" width="28" height="30"/>
	</g>
	<g>
		<text transform="matrix(1 0 0 1 53.9201 353.833)" fill="#FFFFFF" font-family="'Merriweather-Regular'" font-size="34">1934</text>
	</g>
	<g>
		<text transform="matrix(1 0 0 1 53.9201 396.833)" fill="#FFCC07" font-family="'Merriweather-Regular'" font-size="30">Revolución </text>
		<text transform="matrix(1 0 0 1 53.9201 434.833)" fill="#FFCC07" font-family="'Merriweather-Regular'" font-size="30">de Octubre </text>
		<text transform="matrix(1 0 0 1 53.9201 472.833)" fill="#FFCC07" font-family="'Merriweather-Regular'" font-size="30">en Asturias</text>
	</g>
	<g>
		<text transform="matrix(1 0 0 1 53.9201 533.833)" fill="#FFFFFF" font-family="'Merriweather-Regular'" font-size="34">1936</text>
	</g>
	<g>
		<text transform="matrix(1 0 0 1 53.9201 576.833)" fill="#FFCC07" font-family="'Merriweather-Regular'" font-size="30">Inicio de </text>
		<text transform="matrix(1 0 0 1 53.9201 614.833)" fill="#FFCC07" font-family="'Merriweather-Regular'" font-size="30">la Guerra Civil</text>
	</g>
	<g>
		<text transform="matrix(1 0 0 1 53.9201 663.833)" fill="#FFFFFF" font-family="'Merriweather-Regular'" font-size="34">1937</text>
	</g>
	<g>
		<text transform="matrix(1 0 0 1 53.9201 706.833)" fill="#FFCC07" font-family="'Merriweather-Regular'" font-size="30">Caída del </text>
		<text transform="matrix(1 0 0 1 53.9201 744.833)" fill="#FFCC07" font-family="'Merriweather-Regular'" font-size="30">Frente Norte</text>
		<text transform="matrix(1 0 0 1 53.9201 816.833)" fill="#676767" font-family="'Merriweather-Regular'" font-size="30">Asesinato </text>
		<text transform="matrix(1 0 0 1 53.9201 854.833)" fill="#676767" font-family="'Merriweather-Regular'" font-size="30">de José </text>
		<text transform="matrix(1 0 0 1 53.9201 892.833)" fill="#676767" font-family="'Merriweather-Regular'" font-size="30">“El Chalana”</text>
	</g>
	<circle fill="#1B1B1B" stroke="#FFCC07" stroke-miterlimit="10" cx="21.92" cy="957" r="14.666"/>
	<g>
		<text transform="matrix(1 0 0 1 53.9201 967.833)" fill="#FFFFFF" font-family="'Merriweather-Regular'" font-size="34">1951</text>
	</g>
	<g>
		<text transform="matrix(1 0 0 1 53.9201 1010.833)" fill="#676767" font-family="'Merriweather-Regular'" font-size="30">Boda de </text>
		<text transform="matrix(1 0 0 1 53.9201 1048.833)" fill="#676767" font-family="'Merriweather-Regular'" font-size="30">Ezequiel y Pepita</text>
	</g>
	<circle fill="#1B1B1B" stroke="#FFCC07" stroke-miterlimit="10" cx="21.92" cy="1099" r="14.666"/>
	<g>
		<text transform="matrix(1 0 0 1 53.9201 1109.833)" fill="#FFFFFF" font-family="'Merriweather-Regular'" font-size="34">1953</text>
	</g>
	<g>
		<text transform="matrix(1 0 0 1 53.9201 1152.833)" fill="#676767" font-family="'Merriweather-Regular'" font-size="30">Nacimiento </text>
		<text transform="matrix(1 0 0 1 53.9201 1190.833)" fill="#676767" font-family="'Merriweather-Regular'" font-size="30">de José Luis</text>
	</g>
	<line fill="none" stroke="#343434" stroke-miterlimit="10" x1="52.92" y1="773" x2="150.92" y2="773"/>
</g>
<radialGradient id="SVGID_1_" cx="-428.7575" cy="1623.1129" r="565.2527" gradientTransform="matrix(-0.0302 -0.9455 0.4212 -0.012 -533.0027 225.0871)" gradientUnits="userSpaceOnUse">
	<stop  offset="0" style="stop-color:#000000;stop-opacity:0"/>
	<stop  offset="0.8846" style="stop-color:#000000;stop-opacity:0.8846"/>
	<stop  offset="1" style="stop-color:#000000"/>
</radialGradient>
<rect x="0" y="8" fill="url(#SVGID_1_)" width="327.202" height="1206"/>
</svg>
