<?xml version="1.0" encoding="utf-8"?>
<!-- Generator: Adobe Illustrator 17.0.0, SVG Export Plug-In . SVG Version: 6.00 Build 0)  -->
<!DOCTYPE svg PUBLIC "-//W3C//DTD SVG 1.1//EN" "http://www.w3.org/Graphics/SVG/1.1/DTD/svg11.dtd">
<svg version="1.1" id="Layer_1" xmlns="http://www.w3.org/2000/svg" xmlns:xlink="http://www.w3.org/1999/xlink" x="0px" y="0px"
	 width="327.203px" height="1189.19px" viewBox="0 243.49 327.203 1189.19" enable-background="new 0 243.49 327.203 1189.19"
	 xml:space="preserve">
<rect x="0" y="243.49" width="327.203" height="1189.19"/>
<g>
	<line fill="none" stroke="#FFCC07" stroke-miterlimit="10" x1="21.92" y1="-243.488" x2="21.92" y2="2390.521"/>
	<g>
		
			<rect x="6.919" y="273.515" transform="matrix(0.7071 0.7071 -0.7071 0.7071 209.7233 68.7124)" fill="#1B1B1B" width="30" height="28"/>
		
			<rect x="7.919" y="272.515" transform="matrix(0.7071 0.7071 -0.7071 0.7071 209.7238 68.7122)" fill="none" stroke="#FFCC07" stroke-miterlimit="10" width="28" height="30"/>
	</g>
	<g>
		
			<rect x="6.918" y="403.518" transform="matrix(0.7071 0.7071 -0.7071 0.7071 301.6495 106.7899)" fill="#1B1B1B" width="30" height="28"/>
		
			<rect x="7.919" y="402.516" transform="matrix(0.7071 0.7071 -0.7071 0.7071 301.6482 106.7886)" fill="none" stroke="#FFCC07" stroke-miterlimit="10" width="28" height="30"/>
	</g>
	<g>
		<text transform="matrix(1 0 0 1 53.921 161.3462)" fill="#FFCC07" font-family="'Merriweather-Regular'" font-size="30.0001">Revolución </text>
		<text transform="matrix(1 0 0 1 53.921 199.3461)" fill="#FFCC07" font-family="'Merriweather-Regular'" font-size="30.0001">de Octubre </text>
		<text transform="matrix(1 0 0 1 53.921 237.3459)" fill="#FFCC07" font-family="'Merriweather-Regular'" font-size="30.0001">en Asturias</text>
	</g>
	<g>
		<text transform="matrix(1 0 0 1 53.921 298.3477)" fill="#FFFFFF" font-family="'Merriweather-Regular'" font-size="34.0001">1936</text>
	</g>
	<g>
		<text transform="matrix(1 0 0 1 53.921 341.3475)" fill="#FFCC07" font-family="'Merriweather-Regular'" font-size="30.0001">Inicio de </text>
		<text transform="matrix(1 0 0 1 53.921 379.3474)" fill="#FFCC07" font-family="'Merriweather-Regular'" font-size="30.0001">la Guerra Civil</text>
	</g>
	<g>
		<text transform="matrix(1 0 0 1 53.921 428.3472)" fill="#FFFFFF" font-family="'Merriweather-Regular'" font-size="34.0001">1937</text>
	</g>
	<g>
		<text transform="matrix(1 0 0 1 53.921 471.348)" fill="#FFCC07" font-family="'Merriweather-Regular'" font-size="30.0001">Caída del </text>
		<text transform="matrix(1 0 0 1 53.921 509.3479)" fill="#FFCC07" font-family="'Merriweather-Regular'" font-size="30.0001">Frente Norte</text>
		<text transform="matrix(1 0 0 1 53.921 581.3486)" fill="#676767" font-family="'Merriweather-Regular'" font-size="30.0001">Asesinato </text>
		<text transform="matrix(1 0 0 1 53.921 619.3484)" fill="#676767" font-family="'Merriweather-Regular'" font-size="30.0001">de José </text>
		<text transform="matrix(1 0 0 1 53.921 657.3483)" fill="#676767" font-family="'Merriweather-Regular'" font-size="30.0001">“El Chalana”</text>
	</g>
	<circle fill="#1B1B1B" stroke="#FFCC07" stroke-miterlimit="10" cx="21.92" cy="721.515" r="14.666"/>
	<g>
		<text transform="matrix(1 0 0 1 53.921 732.3481)" fill="#FFFFFF" font-family="'Merriweather-Regular'" font-size="34.0001">1951</text>
	</g>
	<g>
		<text transform="matrix(1 0 0 1 53.921 775.3489)" fill="#676767" font-family="'Merriweather-Regular'" font-size="30.0001">Boda de </text>
		<text transform="matrix(1 0 0 1 53.921 813.3497)" fill="#676767" font-family="'Merriweather-Regular'" font-size="30.0001">Ezequiel y Pepita</text>
	</g>
	<circle fill="#1B1B1B" stroke="#FFCC07" stroke-miterlimit="10" cx="21.92" cy="863.516" r="14.666"/>
	<g>
		<text transform="matrix(1 0 0 1 53.921 874.3495)" fill="#FFFFFF" font-family="'Merriweather-Regular'" font-size="34.0001">1953</text>
	</g>
	<g>
		<text transform="matrix(1 0 0 1 53.921 917.3494)" fill="#676767" font-family="'Merriweather-Regular'" font-size="30.0001">Nacimiento </text>
		<text transform="matrix(1 0 0 1 53.921 955.3492)" fill="#676767" font-family="'Merriweather-Regular'" font-size="30.0001">de José Luis</text>
	</g>
	<circle fill="#1B1B1B" stroke="#FFCC07" stroke-miterlimit="10" cx="21.92" cy="1017.516" r="14.666"/>
	<g>
		<text transform="matrix(1 0 0 1 53.921 1028.3495)" fill="#FFFFFF" font-family="'Merriweather-Regular'" font-size="34.0001">1957</text>
	</g>
	<g>
		<text transform="matrix(1 0 0 1 53.921 1071.3492)" fill="#676767" font-family="'Merriweather-Regular'" font-size="30.0001">Nacimiento </text>
		<text transform="matrix(1 0 0 1 53.921 1109.3501)" fill="#676767" font-family="'Merriweather-Regular'" font-size="30.0001">de Ezequiel</text>
	</g>
	<circle fill="#1B1B1B" stroke="#FFCC07" stroke-miterlimit="10" cx="21.92" cy="1173.517" r="14.666"/>
	<g>
		<text transform="matrix(1 0 0 1 53.921 1184.3503)" fill="#FFFFFF" font-family="'Merriweather-Regular'" font-size="34.0001">1960</text>
	</g>
	<g>
		<text transform="matrix(1 0 0 1 53.921 1227.3512)" fill="#676767" font-family="'Merriweather-Regular'" font-size="30.0001">Emigración </text>
		<text transform="matrix(1 0 0 1 53.921 1265.3511)" fill="#676767" font-family="'Merriweather-Regular'" font-size="30.0001">de Ricardo</text>
	</g>
	<circle fill="#1B1B1B" stroke="#FFCC07" stroke-miterlimit="10" cx="21.92" cy="1317.518" r="14.666"/>
	<g>
		<text transform="matrix(1 0 0 1 53.921 1328.3513)" fill="#FFFFFF" font-family="'Merriweather-Regular'" font-size="34.0001">1961</text>
	</g>
	<g>
		<text transform="matrix(1 0 0 1 53.921 1371.3512)" fill="#676767" font-family="'Merriweather-Regular'" font-size="30.0001">Emigración de </text>
		<text transform="matrix(1 0 0 1 53.921 1409.3511)" fill="#676767" font-family="'Merriweather-Regular'" font-size="30.0001">Ezequiel y Pepita</text>
	</g>
	<line fill="none" stroke="#343434" stroke-miterlimit="10" x1="52.92" y1="537.515" x2="150.921" y2="537.515"/>
</g>
<radialGradient id="SVGID_1_" cx="-693.9292" cy="1599.8986" r="569.6356" gradientTransform="matrix(-0.0302 -0.9323 0.4212 -0.0119 -531.2324 210.1736)" gradientUnits="userSpaceOnUse">
	<stop  offset="0" style="stop-color:#000000;stop-opacity:0"/>
	<stop  offset="0.7613" style="stop-color:#000000;stop-opacity:0.7613"/>
	<stop  offset="0.8846" style="stop-color:#000000;stop-opacity:0.8846"/>
	<stop  offset="1" style="stop-color:#000000"/>
</radialGradient>
<rect x="0" y="243.49" fill="url(#SVGID_1_)" width="327.203" height="1189.19"/>
</svg>
