<?xml version="1.0" encoding="utf-8"?>
<!-- Generator: Adobe Illustrator 17.0.0, SVG Export Plug-In . SVG Version: 6.00 Build 0)  -->
<!DOCTYPE svg PUBLIC "-//W3C//DTD SVG 1.1//EN" "http://www.w3.org/Graphics/SVG/1.1/DTD/svg11.dtd">
<svg version="1.1" id="Layer_1" xmlns="http://www.w3.org/2000/svg" xmlns:xlink="http://www.w3.org/1999/xlink" x="0px" y="0px"
	 width="163.601px" height="621.592px" viewBox="0 0 163.601 621.592" enable-background="new 0 0 163.601 621.592"
	 xml:space="preserve">
<g>
	<line fill="none" stroke="#FFCC07" stroke-miterlimit="10" x1="10.96" y1="-531.474" x2="10.96" y2="785.526"/>
	<g>
		<text transform="matrix(1 0 0 1 26.9602 -22.0572)"><tspan x="0" y="0" fill="#676767" font-family="'Merriweather-Regular'" font-size="15">Boda de </tspan><tspan x="0" y="19" fill="#676767" font-family="'Merriweather-Regular'" font-size="15">Ezequiel y Pepita</tspan></text>
	</g>
	<circle fill="#1B1B1B" stroke="#FFCC07" stroke-miterlimit="10" cx="10.96" cy="22.026" r="7.333"/>
	<g>
		<text transform="matrix(1 0 0 1 26.9602 27.4428)" fill="#FFFFFF" font-family="'Merriweather-Regular'" font-size="17">1953</text>
	</g>
	<g>
		<text transform="matrix(1 0 0 1 26.9602 48.9428)"><tspan x="0" y="0" fill="#676767" font-family="'Merriweather-Regular'" font-size="15">Nacimiento </tspan><tspan x="0" y="19" fill="#676767" font-family="'Merriweather-Regular'" font-size="15">de José Luis</tspan></text>
	</g>
	<circle fill="#1B1B1B" stroke="#FFCC07" stroke-miterlimit="10" cx="10.96" cy="99.026" r="7.333"/>
	<g>
		<text transform="matrix(1 0 0 1 26.9602 104.4428)" fill="#FFFFFF" font-family="'Merriweather-Regular'" font-size="17">1957</text>
	</g>
	<g>
		<text transform="matrix(1 0 0 1 26.9602 125.9428)"><tspan x="0" y="0" fill="#676767" font-family="'Merriweather-Regular'" font-size="15">Nacimiento </tspan><tspan x="0" y="19" fill="#676767" font-family="'Merriweather-Regular'" font-size="15">de Ezequiel</tspan></text>
	</g>
	<circle fill="#1B1B1B" stroke="#FFCC07" stroke-miterlimit="10" cx="10.96" cy="177.026" r="7.333"/>
	<g>
		<text transform="matrix(1 0 0 1 26.9602 182.4428)" fill="#FFFFFF" font-family="'Merriweather-Regular'" font-size="17">1960</text>
	</g>
	<g>
		<text transform="matrix(1 0 0 1 26.9602 203.9428)"><tspan x="0" y="0" fill="#676767" font-family="'Merriweather-Regular'" font-size="15">Emigración </tspan><tspan x="0" y="19" fill="#676767" font-family="'Merriweather-Regular'" font-size="15">de Ricardo</tspan></text>
	</g>
	<circle fill="#1B1B1B" stroke="#FFCC07" stroke-miterlimit="10" cx="10.96" cy="249.026" r="7.333"/>
	<g>
		<text transform="matrix(1 0 0 1 26.9602 254.4428)" fill="#FFFFFF" font-family="'Merriweather-Regular'" font-size="17">1961</text>
	</g>
	<g>
		<text transform="matrix(1 0 0 1 26.9602 275.9428)"><tspan x="0" y="0" fill="#676767" font-family="'Merriweather-Regular'" font-size="15">Emigración de </tspan><tspan x="0" y="19" fill="#676767" font-family="'Merriweather-Regular'" font-size="15">Ezequiel y Pepita</tspan></text>
	</g>
	<circle fill="#1B1B1B" stroke="#FFCC07" stroke-miterlimit="10" cx="10.96" cy="323.026" r="7.333"/>
	<g>
		<text transform="matrix(1 0 0 1 26.9602 328.4428)" fill="#FFFFFF" font-family="'Merriweather-Regular'" font-size="17">1962</text>
	</g>
	<g>
		<text transform="matrix(1 0 0 1 26.9602 349.9428)"><tspan x="0" y="0" fill="#676767" font-family="'Merriweather-Regular'" font-size="15">Sus hijos </tspan><tspan x="0" y="19" fill="#676767" font-family="'Merriweather-Regular'" font-size="15">van a Alemania</tspan></text>
	</g>
	<circle fill="#1B1B1B" stroke="#FFCC07" stroke-miterlimit="10" cx="10.96" cy="392.026" r="7.333"/>
	<g>
		<text transform="matrix(1 0 0 1 26.9602 397.4428)" fill="#FFFFFF" font-family="'Merriweather-Regular'" font-size="17">1965</text>
	</g>
	<g>
		<text transform="matrix(1 0 0 1 26.9602 418.9428)"><tspan x="0" y="0" fill="#676767" font-family="'Merriweather-Regular'" font-size="15">Nacimiento </tspan><tspan x="0" y="19" fill="#676767" font-family="'Merriweather-Regular'" font-size="15">De Eugenia</tspan><tspan x="0" y="59" fill="#676767" font-family="'Merriweather-Regular'" font-size="15">Vuelta a España </tspan><tspan x="0" y="78" fill="#676767" font-family="'Merriweather-Regular'" font-size="15">de sus hijos</tspan></text>
	</g>
	<circle fill="#1B1B1B" stroke="#FFCC07" stroke-miterlimit="10" cx="10.96" cy="527.026" r="7.333"/>
	<g>
		<text transform="matrix(1 0 0 1 26.9602 532.4427)" fill="#FFFFFF" font-family="'Merriweather-Regular'" font-size="17">1969</text>
	</g>
	<g>
		<text transform="matrix(1 0 0 1 26.9602 553.9427)"><tspan x="0" y="0" fill="#676767" font-family="'Merriweather-Regular'" font-size="15">José Luis sale </tspan><tspan x="0" y="19" fill="#676767" font-family="'Merriweather-Regular'" font-size="15">del colegio </tspan><tspan x="0" y="38" fill="#676767" font-family="'Merriweather-Regular'" font-size="15">y va a Alemania </tspan><tspan x="0" y="57" fill="#676767" font-family="'Merriweather-Regular'" font-size="15">a trabajar</tspan></text>
	</g>
	<line fill="none" stroke="#343434" stroke-miterlimit="10" x1="26.46" y1="454.026" x2="75.46" y2="454.026"/>
</g>
</svg>
