<?xml version="1.0" encoding="utf-8"?>
<!-- Generator: Adobe Illustrator 17.0.0, SVG Export Plug-In . SVG Version: 6.00 Build 0)  -->
<!DOCTYPE svg PUBLIC "-//W3C//DTD SVG 1.1//EN" "http://www.w3.org/Graphics/SVG/1.1/DTD/svg11.dtd">
<svg version="1.1" id="Layer_1" xmlns="http://www.w3.org/2000/svg" xmlns:xlink="http://www.w3.org/1999/xlink" x="0px" y="0px"
	 width="327.203px" height="1243.188px" viewBox="0 531.478 327.203 1243.188" enable-background="new 0 531.478 327.203 1243.188"
	 xml:space="preserve">
<rect x="0" y="531.478" width="327.203" height="1243.188"/>
<g>
	<line fill="none" stroke="#FFCC07" stroke-miterlimit="10" x1="21.92" y1="-531.474" x2="21.92" y2="2102.535"/>
	<g>
		<text transform="matrix(1 0 0 1 53.921 487.3632)" fill="#676767" font-family="'Merriweather-Regular'" font-size="30.0001">Boda de </text>
		<text transform="matrix(1 0 0 1 53.921 525.364)" fill="#676767" font-family="'Merriweather-Regular'" font-size="30.0001">Ezequiel y Pepita</text>
	</g>
	<circle fill="#1B1B1B" stroke="#FFCC07" stroke-miterlimit="10" cx="21.92" cy="575.53" r="14.666"/>
	<g>
		<text transform="matrix(1 0 0 1 53.921 586.3647)" fill="#FFFFFF" font-family="'Merriweather-Regular'" font-size="34.0001">1953</text>
	</g>
	<g>
		<text transform="matrix(1 0 0 1 53.921 629.3646)" fill="#676767" font-family="'Merriweather-Regular'" font-size="30.0001">Nacimiento </text>
		<text transform="matrix(1 0 0 1 53.921 667.3644)" fill="#676767" font-family="'Merriweather-Regular'" font-size="30.0001">de José Luis</text>
	</g>
	<circle fill="#1B1B1B" stroke="#FFCC07" stroke-miterlimit="10" cx="21.92" cy="729.53" r="14.666"/>
	<g>
		<text transform="matrix(1 0 0 1 53.921 740.3642)" fill="#FFFFFF" font-family="'Merriweather-Regular'" font-size="34.0001">1957</text>
	</g>
	<g>
		<text transform="matrix(1 0 0 1 53.921 783.3641)" fill="#676767" font-family="'Merriweather-Regular'" font-size="30.0001">Nacimiento </text>
		<text transform="matrix(1 0 0 1 53.921 821.3649)" fill="#676767" font-family="'Merriweather-Regular'" font-size="30.0001">de Ezequiel</text>
	</g>
	<circle fill="#1B1B1B" stroke="#FFCC07" stroke-miterlimit="10" cx="21.92" cy="885.531" r="14.666"/>
	<g>
		<text transform="matrix(1 0 0 1 53.921 896.3656)" fill="#FFFFFF" font-family="'Merriweather-Regular'" font-size="34.0001">1960</text>
	</g>
	<g>
		<text transform="matrix(1 0 0 1 53.921 939.3654)" fill="#676767" font-family="'Merriweather-Regular'" font-size="30.0001">Emigración </text>
		<text transform="matrix(1 0 0 1 53.921 977.3653)" fill="#676767" font-family="'Merriweather-Regular'" font-size="30.0001">de Ricardo</text>
	</g>
	<circle fill="#1B1B1B" stroke="#FFCC07" stroke-miterlimit="10" cx="21.92" cy="1029.531" r="14.666"/>
	<g>
		<text transform="matrix(1 0 0 1 53.921 1040.3666)" fill="#FFFFFF" font-family="'Merriweather-Regular'" font-size="34.0001">1961</text>
	</g>
	<g>
		<text transform="matrix(1 0 0 1 53.921 1083.3663)" fill="#676767" font-family="'Merriweather-Regular'" font-size="30.0001">Emigración de </text>
		<text transform="matrix(1 0 0 1 53.921 1121.3662)" fill="#676767" font-family="'Merriweather-Regular'" font-size="30.0001">Ezequiel y Pepita</text>
	</g>
	<circle fill="#1B1B1B" stroke="#FFCC07" stroke-miterlimit="10" cx="21.92" cy="1177.532" r="14.666"/>
	<g>
		<text transform="matrix(1 0 0 1 53.921 1188.3665)" fill="#FFFFFF" font-family="'Merriweather-Regular'" font-size="34.0001">1962</text>
	</g>
	<g>
		<text transform="matrix(1 0 0 1 53.921 1231.3663)" fill="#676767" font-family="'Merriweather-Regular'" font-size="30.0001">Sus hijos </text>
		<text transform="matrix(1 0 0 1 53.921 1269.3662)" fill="#676767" font-family="'Merriweather-Regular'" font-size="30.0001">van a Alemania</text>
	</g>
	<circle fill="#1B1B1B" stroke="#FFCC07" stroke-miterlimit="10" cx="21.92" cy="1315.533" r="14.666"/>
	<g>
		<text transform="matrix(1 0 0 1 53.921 1326.3665)" fill="#FFFFFF" font-family="'Merriweather-Regular'" font-size="34.0001">1965</text>
	</g>
	<g>
		<text transform="matrix(1 0 0 1 53.921 1369.3663)" fill="#676767" font-family="'Merriweather-Regular'" font-size="30.0001">Nacimiento </text>
		<text transform="matrix(1 0 0 1 53.921 1407.3662)" fill="#676767" font-family="'Merriweather-Regular'" font-size="30.0001">De Eugenia</text>
		<text transform="matrix(1 0 0 1 53.921 1487.3674)" fill="#676767" font-family="'Merriweather-Regular'" font-size="30.0001">Vuelta a España </text>
		<text transform="matrix(1 0 0 1 53.921 1525.3673)" fill="#676767" font-family="'Merriweather-Regular'" font-size="30.0001">de sus hijos</text>
	</g>
	<circle fill="#1B1B1B" stroke="#FFCC07" stroke-miterlimit="10" cx="21.92" cy="1585.534" r="14.666"/>
	<g>
		<text transform="matrix(1 0 0 1 53.921 1596.3674)" fill="#FFFFFF" font-family="'Merriweather-Regular'" font-size="34.0001">1969</text>
	</g>
	<g>
		<text transform="matrix(1 0 0 1 53.921 1639.3673)" fill="#676767" font-family="'Merriweather-Regular'" font-size="30.0001">José Luis sale </text>
		<text transform="matrix(1 0 0 1 53.921 1677.3682)" fill="#676767" font-family="'Merriweather-Regular'" font-size="30.0001">del colegio </text>
		<text transform="matrix(1 0 0 1 53.921 1715.3685)" fill="#676767" font-family="'Merriweather-Regular'" font-size="30.0001">y va a Alemania </text>
		<text transform="matrix(1 0 0 1 53.921 1753.3684)" fill="#676767" font-family="'Merriweather-Regular'" font-size="30.0001">a trabajar</text>
	</g>
	<line fill="none" stroke="#343434" stroke-miterlimit="10" x1="52.92" y1="1439.533" x2="150.921" y2="1439.533"/>
</g>
<radialGradient id="SVGID_1_" cx="-1062.6687" cy="-317.2736" r="608.4049" gradientTransform="matrix(-0.0302 -0.9747 -0.4212 0.0124 -2.1266 121.223)" gradientUnits="userSpaceOnUse">
	<stop  offset="0" style="stop-color:#000000;stop-opacity:0"/>
	<stop  offset="0.8846" style="stop-color:#000000;stop-opacity:0.8846"/>
	<stop  offset="1" style="stop-color:#000000"/>
</radialGradient>
<rect x="0" y="531.478" fill="url(#SVGID_1_)" width="327.203" height="1243.188"/>
</svg>
