<?xml version="1.0" encoding="utf-8"?>
<!-- Generator: Adobe Illustrator 17.0.0, SVG Export Plug-In . SVG Version: 6.00 Build 0)  -->
<!DOCTYPE svg PUBLIC "-//W3C//DTD SVG 1.1//EN" "http://www.w3.org/Graphics/SVG/1.1/DTD/svg11.dtd">
<svg version="1.1" id="Layer_1" xmlns="http://www.w3.org/2000/svg" xmlns:xlink="http://www.w3.org/1999/xlink" x="0px" y="0px"
	 width="163.601px" height="603px" viewBox="0 0 163.601 603" enable-background="new 0 0 163.601 603" xml:space="preserve">
<g>
	<line fill="none" stroke="#FFCC07" stroke-miterlimit="10" x1="10.96" y1="-8" x2="10.96" y2="1309"/>
	<circle fill="#1B1B1B" stroke="#FFCC07" stroke-miterlimit="10" cx="10.96" cy="26.5" r="7.333"/>
	<g>
		<text transform="matrix(1 0 0 1 26.9602 31.9165)" fill="#FFFFFF" font-family="'Merriweather-Regular'" font-size="17">1932</text>
	</g>
	<g>
		<text transform="matrix(1 0 0 1 26.9602 53.4165)"><tspan x="0" y="0" fill="#676767" font-family="'Merriweather-Regular'" font-size="15">Nacimiento </tspan><tspan x="0" y="19" fill="#676767" font-family="'Merriweather-Regular'" font-size="15">de Pepita</tspan></text>
	</g>
	<circle fill="#1B1B1B" stroke="#FFCC07" stroke-miterlimit="10" cx="10.96" cy="95.5" r="7.333"/>
	<g>
		<text transform="matrix(1 0 0 1 26.9602 100.9165)" fill="#FFFFFF" font-family="'Merriweather-Regular'" font-size="17">1932</text>
	</g>
	<g>
		<text transform="matrix(1 0 0 1 26.9602 122.4165)"><tspan x="0" y="0" fill="#676767" font-family="'Merriweather-Regular'" font-size="15">Nacimiento </tspan><tspan x="0" y="19" fill="#676767" font-family="'Merriweather-Regular'" font-size="15">de Ezequiel</tspan></text>
	</g>
	<g>
		
			<rect x="3.46" y="160.5" transform="matrix(-0.7071 -0.7071 0.7071 -0.7071 -99.7303 293.6904)" fill="#1B1B1B" width="15" height="14"/>
		
			<rect x="3.96" y="160" transform="matrix(-0.7071 -0.7071 0.7071 -0.7071 -99.7304 293.6903)" fill="none" stroke="#FFCC07" stroke-miterlimit="10" width="14" height="15"/>
	</g>
	<g>
		
			<rect x="3.46" y="250.5" transform="matrix(-0.7071 -0.7071 0.7071 -0.7071 -163.3699 447.33)" fill="#1B1B1B" width="15" height="14"/>
		
			<rect x="3.96" y="250" transform="matrix(-0.7071 -0.7071 0.7071 -0.7071 -163.37 447.3299)" fill="none" stroke="#FFCC07" stroke-miterlimit="10" width="14" height="15"/>
	</g>
	<g>
		
			<rect x="3.46" y="315.5" transform="matrix(-0.7071 -0.7071 0.7071 -0.7071 -209.3319 558.2919)" fill="#1B1B1B" width="15" height="14"/>
		
			<rect x="3.96" y="315" transform="matrix(-0.7071 -0.7071 0.7071 -0.7071 -209.332 558.2918)" fill="none" stroke="#FFCC07" stroke-miterlimit="10" width="14" height="15"/>
	</g>
	<g>
		<text transform="matrix(1 0 0 1 26.9602 172.9165)" fill="#FFFFFF" font-family="'Merriweather-Regular'" font-size="17">1934</text>
	</g>
	<g>
		<text transform="matrix(1 0 0 1 26.9602 194.4165)"><tspan x="0" y="0" fill="#FFCC07" font-family="'Merriweather-Regular'" font-size="15">Revolución </tspan><tspan x="0" y="19" fill="#FFCC07" font-family="'Merriweather-Regular'" font-size="15">de Octubre </tspan><tspan x="0" y="38" fill="#FFCC07" font-family="'Merriweather-Regular'" font-size="15">en Asturias</tspan></text>
	</g>
	<g>
		<text transform="matrix(1 0 0 1 26.9602 262.9165)" fill="#FFFFFF" font-family="'Merriweather-Regular'" font-size="17">1936</text>
	</g>
	<g>
		<text transform="matrix(1 0 0 1 26.9602 284.4165)"><tspan x="0" y="0" fill="#FFCC07" font-family="'Merriweather-Regular'" font-size="15">Inicio de </tspan><tspan x="0" y="19" fill="#FFCC07" font-family="'Merriweather-Regular'" font-size="15">la Guerra Civil</tspan></text>
	</g>
	<g>
		<text transform="matrix(1 0 0 1 26.9602 327.9165)" fill="#FFFFFF" font-family="'Merriweather-Regular'" font-size="17">1937</text>
	</g>
	<g>
		<text transform="matrix(1 0 0 1 26.9602 349.4166)"><tspan x="0" y="0" fill="#FFCC07" font-family="'Merriweather-Regular'" font-size="15">Caída del </tspan><tspan x="0" y="19" fill="#FFCC07" font-family="'Merriweather-Regular'" font-size="15">Frente Norte</tspan><tspan x="0" y="55" fill="#676767" font-family="'Merriweather-Regular'" font-size="15">Asesinato </tspan><tspan x="0" y="74" fill="#676767" font-family="'Merriweather-Regular'" font-size="15">de José </tspan><tspan x="0" y="93" fill="#676767" font-family="'Merriweather-Regular'" font-size="15">“El Chalana”</tspan></text>
	</g>
	<circle fill="#1B1B1B" stroke="#FFCC07" stroke-miterlimit="10" cx="10.96" cy="474.5" r="7.333"/>
	<g>
		<text transform="matrix(1 0 0 1 26.9602 479.9166)" fill="#FFFFFF" font-family="'Merriweather-Regular'" font-size="17">1951</text>
	</g>
	<g>
		<text transform="matrix(1 0 0 1 26.9602 501.4166)"><tspan x="0" y="0" fill="#676767" font-family="'Merriweather-Regular'" font-size="15">Boda de </tspan><tspan x="0" y="19" fill="#676767" font-family="'Merriweather-Regular'" font-size="15">Ezequiel y Pepita</tspan></text>
	</g>
	<circle fill="#1B1B1B" stroke="#FFCC07" stroke-miterlimit="10" cx="10.96" cy="545.5" r="7.333"/>
	<g>
		<text transform="matrix(1 0 0 1 26.9602 550.9166)" fill="#FFFFFF" font-family="'Merriweather-Regular'" font-size="17">1953</text>
	</g>
	<g>
		<text transform="matrix(1 0 0 1 26.9602 572.4166)"><tspan x="0" y="0" fill="#676767" font-family="'Merriweather-Regular'" font-size="15">Nacimiento </tspan><tspan x="0" y="19" fill="#676767" font-family="'Merriweather-Regular'" font-size="15">de José Luis</tspan></text>
	</g>
	<line fill="none" stroke="#343434" stroke-miterlimit="10" x1="26.46" y1="382.5" x2="75.46" y2="382.5"/>
</g>
</svg>
