<?xml version="1.0" encoding="utf-8"?>
<!-- Generator: Adobe Illustrator 17.0.0, SVG Export Plug-In . SVG Version: 6.00 Build 0)  -->
<!DOCTYPE svg PUBLIC "-//W3C//DTD SVG 1.1//EN" "http://www.w3.org/Graphics/SVG/1.1/DTD/svg11.dtd">
<svg version="1.1" id="Layer_1" xmlns="http://www.w3.org/2000/svg" xmlns:xlink="http://www.w3.org/1999/xlink" x="0px" y="0px"
	 width="512px" height="512px" viewBox="0 0 512 512" enable-background="new 0 0 512 512" xml:space="preserve">
<g>
	<path fill="#FFFFFF" d="M497.962,512.462c-3.711,0-7.422-1.416-10.253-4.247L3.785,24.291c-5.663-5.663-5.663-14.843,0-20.506
		c5.662-5.663,14.844-5.663,20.506,0l483.924,483.924c5.663,5.662,5.663,14.844,0,20.506
		C505.384,511.046,501.673,512.462,497.962,512.462z"/>
</g>
<g>
	<path fill="#FFFFFF" d="M14.038,512.462c-3.711,0-7.422-1.416-10.253-4.247c-5.663-5.662-5.663-14.844,0-20.506L487.709,3.785
		c5.662-5.663,14.844-5.663,20.506,0c5.663,5.663,5.663,14.843,0,20.506L24.291,508.215
		C21.46,511.046,17.749,512.462,14.038,512.462z"/>
</g>
</svg>
